<?xml version="1.0" encoding="utf-8"?>
<!-- Generator: Adobe Illustrator 15.0.0, SVG Export Plug-In . SVG Version: 6.00 Build 0)  -->
<!DOCTYPE svg PUBLIC "-//W3C//DTD SVG 1.1//EN" "http://www.w3.org/Graphics/SVG/1.1/DTD/svg11.dtd">
<svg version="1.1" id="Layer_1" xmlns="http://www.w3.org/2000/svg" xmlns:xlink="http://www.w3.org/1999/xlink" x="0px" y="0px"
	 width="79.25px" height="75.5px" viewBox="0 0 79.25 75.5" enable-background="new 0 0 79.25 75.5" xml:space="preserve">
<g>
	<g>
		<g>
			<g>
				<path fill="#222222" d="M54.174,49.208c-1.651,0-2.995-1.162-2.995-2.592s1.344-2.593,2.995-2.593s2.995,1.163,2.995,2.593
					c0,0.752,0.609,1.361,1.361,1.361c0.751,0,1.361-0.609,1.361-1.361c0-2.495-1.859-4.592-4.356-5.161v-0.708
					c0-0.752-0.61-1.361-1.361-1.361c-0.752,0-1.361,0.609-1.361,1.361v0.708c-2.497,0.569-4.356,2.666-4.356,5.161
					c0,2.931,2.564,5.314,5.718,5.314c1.651,0,2.995,1.163,2.995,2.593c0,1.429-1.344,2.592-2.995,2.592s-2.995-1.163-2.995-2.592
					c0-0.752-0.609-1.361-1.361-1.361s-1.361,0.609-1.361,1.361c0,2.494,1.859,4.592,4.356,5.161v0.588
					c0,0.752,0.609,1.361,1.361,1.361c0.751,0,1.361-0.609,1.361-1.361v-0.588c2.497-0.569,4.356-2.667,4.356-5.161
					C59.892,51.593,57.326,49.208,54.174,49.208z"/>
			</g>
		</g>
	</g>
	<g>
		<g>
			<g>
				<path fill="#222222" d="M69.084,41.111c-1.778-2.771-4.284-4.988-7.245-6.412c-0.678-0.326-1.491-0.041-1.817,0.637
					c-0.325,0.678-0.04,1.491,0.638,1.816c5.16,2.481,8.495,7.782,8.495,13.505c0,2.448-0.604,4.877-1.745,7.022
					c-0.354,0.664-0.102,1.488,0.563,1.842c0.203,0.108,0.422,0.16,0.638,0.16c0.487,0,0.958-0.263,1.203-0.723
					c1.351-2.538,2.064-5.409,2.064-8.302C71.877,47.26,70.911,43.958,69.084,41.111z"/>
			</g>
		</g>
	</g>
	<g>
		<g>
			<g>
				<path fill="#222222" d="M56.313,32.96h-0.092c-0.752,0-1.361,0.609-1.361,1.361s0.609,1.361,1.361,1.361h0.079
					c0.002,0,0.004,0,0.007,0c0.748,0,1.357-0.604,1.36-1.354C57.672,33.576,57.065,32.964,56.313,32.96z"/>
			</g>
		</g>
	</g>
	<g>
		<g>
			<g>
				<path fill="#222222" d="M47.701,64.161c-5.161-2.48-8.495-7.781-8.495-13.504c0-2.449,0.604-4.877,1.745-7.023
					c0.353-0.663,0.102-1.488-0.563-1.841c-0.663-0.354-1.488-0.102-1.841,0.563c-1.351,2.538-2.064,5.408-2.064,8.302
					c0,3.397,0.966,6.698,2.793,9.546c1.778,2.771,4.283,4.988,7.245,6.412c0.19,0.092,0.392,0.135,0.589,0.135
					c0.507,0,0.994-0.284,1.228-0.771C48.663,65.301,48.379,64.487,47.701,64.161z"/>
			</g>
		</g>
	</g>
	<g>
		<g>
			<g>
				<path fill="#222222" d="M52.138,65.632l-0.078-0.001c-0.756-0.001-1.364,0.604-1.367,1.355
					c-0.004,0.752,0.603,1.364,1.354,1.367h0.091c0.752,0,1.361-0.609,1.361-1.361C53.499,66.241,52.89,65.632,52.138,65.632z"/>
			</g>
		</g>
	</g>
	<g>
		<g>
			<g>
				<path fill="#222222" d="M60.361,28.354c-0.165-0.395-0.368-0.767-0.604-1.112h3.544c3.452,0,6.262-2.809,6.262-6.262
					s-2.81-6.262-6.262-6.262H52.399c0.693-1.008,1.1-2.227,1.1-3.54c0-3.452-2.809-6.262-6.262-6.262H13.886
					c-3.453,0-6.263,2.81-6.263,6.262c0,3.453,2.81,6.263,6.263,6.263h10.9c-0.692,1.008-1.1,2.227-1.1,3.539s0.406,2.531,1.1,3.539
					h-3.55c-3.453,0-6.263,2.81-6.263,6.263c0,1.982,0.928,3.752,2.371,4.9c-1.443,1.148-2.371,2.918-2.371,4.9
					c0,1.983,0.928,3.753,2.371,4.901c-1.443,1.147-2.371,2.917-2.371,4.9c0,1.982,0.928,3.752,2.371,4.9
					c-1.443,1.148-2.371,2.918-2.371,4.9c0,3.453,2.81,6.263,6.263,6.263h16.043c4.226,4.521,10.238,7.351,16.9,7.351
					c12.761,0,23.143-10.381,23.143-23.142C77.322,40.036,70.13,31.065,60.361,28.354z M63.301,17.441
					c1.951,0,3.539,1.588,3.539,3.539s-1.588,3.539-3.539,3.539h-8.713h-24.64c-1.951,0-3.539-1.588-3.539-3.539
					s1.588-3.539,3.539-3.539H63.301z M13.886,14.719c-1.952,0-3.54-1.588-3.54-3.54c0-1.951,1.588-3.539,3.54-3.539h33.352
					c1.951,0,3.539,1.588,3.539,3.539c0,1.952-1.588,3.54-3.539,3.54H13.886z M21.236,27.242h33.352
					c0.549,0,1.073,0.128,1.545,0.355c-0.644-0.054-1.295-0.083-1.953-0.083c-6.391,0-12.185,2.604-16.376,6.807H21.236
					c-1.952,0-3.539-1.588-3.539-3.539C17.697,28.83,19.284,27.242,21.236,27.242z M21.236,37.044h14.241
					c-1.545,2.117-2.74,4.505-3.499,7.079H21.236c-1.952,0-3.539-1.588-3.539-3.54C17.697,38.632,19.284,37.044,21.236,37.044z
					 M21.236,46.846h10.117c-0.206,1.24-0.315,2.513-0.315,3.812c0,1.108,0.08,2.199,0.231,3.267H21.236
					c-1.952,0-3.539-1.588-3.539-3.539C17.697,48.433,19.284,46.846,21.236,46.846z M21.236,63.726c-1.952,0-3.539-1.588-3.539-3.54
					c0-1.951,1.587-3.539,3.539-3.539h10.589c0.688,2.562,1.803,4.948,3.267,7.079H21.236z M54.18,71.076
					c-11.259,0-20.419-9.16-20.419-20.419c0-11.26,9.16-20.42,20.419-20.42c11.26,0,20.42,9.16,20.42,20.42
					C74.6,61.916,65.439,71.076,54.18,71.076z"/>
			</g>
		</g>
	</g>
	<g>
		<g>
			<g>
				<path fill="#FFFFFF" d="M76.445,4.531c-1.761-0.303-3.14-1.682-3.441-3.441c0-0.602-0.487-1.09-1.089-1.09
					s-1.089,0.488-1.089,1.09c-0.302,1.76-1.682,3.139-3.441,3.441c-0.602,0-1.089,0.487-1.089,1.089
					c0,0.601,0.487,1.089,1.089,1.089c1.76,0.302,3.14,1.681,3.441,3.441c0,0.602,0.487,1.089,1.089,1.089s1.089-0.487,1.089-1.089
					c0.302-1.761,1.681-3.14,3.441-3.441c0.602,0,1.089-0.488,1.089-1.089C77.534,5.019,77.047,4.531,76.445,4.531z M71.915,7.177
					c-0.423-0.607-0.95-1.135-1.558-1.557c0.607-0.423,1.135-0.95,1.558-1.558c0.422,0.607,0.949,1.135,1.557,1.558
					C72.864,6.042,72.337,6.569,71.915,7.177z"/>
			</g>
		</g>
	</g>
	<g>
		<g>
			<g>
				<path fill="#FFFFFF" d="M10.149,27.4c-1.76-0.302-3.139-1.681-3.441-3.441c0-0.602-0.487-1.089-1.089-1.089
					S4.53,23.357,4.53,23.959C4.229,25.72,2.85,27.099,1.089,27.4C0.487,27.4,0,27.889,0,28.49c0,0.601,0.487,1.089,1.089,1.089
					c1.761,0.302,3.14,1.681,3.441,3.441c0,0.601,0.487,1.089,1.089,1.089s1.089-0.488,1.089-1.089
					c0.303-1.761,1.682-3.14,3.441-3.441c0.602,0,1.09-0.488,1.09-1.089C11.239,27.889,10.751,27.4,10.149,27.4z M5.619,30.047
					c-0.422-0.607-0.95-1.135-1.558-1.557c0.607-0.423,1.136-0.95,1.558-1.558c0.423,0.607,0.95,1.135,1.558,1.558
					C6.569,28.912,6.042,29.439,5.619,30.047z"/>
			</g>
		</g>
	</g>
</g>
</svg>
