<?xml version="1.0" encoding="utf-8"?>
<!-- Generator: Adobe Illustrator 15.0.0, SVG Export Plug-In . SVG Version: 6.00 Build 0)  -->
<!DOCTYPE svg PUBLIC "-//W3C//DTD SVG 1.1//EN" "http://www.w3.org/Graphics/SVG/1.1/DTD/svg11.dtd">
<svg version="1.1" id="Layer_1" xmlns="http://www.w3.org/2000/svg" xmlns:xlink="http://www.w3.org/1999/xlink" x="0px" y="0px"
	 width="79.25px" height="75.5px" viewBox="0 0 79.25 75.5" enable-background="new 0 0 79.25 75.5" xml:space="preserve">
<g id="Page-1_1_">
	<g id="_x30_07---Car-Insurance_1_">
		<g id="Shape_22_">
			<g>
				<path fill="#FFFFFF" d="M48.191,34.107l9.659,6.875c0.43,0.307,1.005,0.307,1.435,0l9.659-6.875
					c2.012-1.425,3.213-3.734,3.224-6.2V13.278c0.001-0.493-0.289-0.939-0.741-1.136L59.062,6.801c-0.312-0.135-0.666-0.135-0.979,0
					l-12.365,5.341c-0.45,0.197-0.742,0.643-0.741,1.136v14.629C44.986,30.371,46.183,32.68,48.191,34.107z M47.439,14.09
					l11.129-4.806l11.128,4.806v13.817c-0.01,1.669-0.824,3.23-2.188,4.193l-8.94,6.356l-8.941-6.364
					c-1.362-0.96-2.176-2.52-2.188-4.186V14.09z"/>
			</g>
		</g>
		<g id="Shape_20_">
			<path fill="#FFFFFF" d="M55.354,30.74c0.533,0.401,1.289,0.306,1.706-0.216l9.893-12.365c0.427-0.533,0.341-1.311-0.193-1.738
				c-0.533-0.427-1.311-0.34-1.739,0.193l-9.148,11.43l-3.98-2.991c-0.354-0.265-0.821-0.322-1.228-0.148
				c-0.406,0.174-0.688,0.55-0.741,0.989c-0.054,0.439,0.132,0.873,0.484,1.137L55.354,30.74z"/>
		</g>
		<g id="Shape_18_">
			<path fill="#222222" d="M5.4,66.846h1.236v4.945c0,2.047,1.661,3.709,3.71,3.709h7.418c2.049,0,3.709-1.662,3.709-3.709v-4.945
				h29.676v4.945c0,2.047,1.66,3.709,3.709,3.709h7.418c2.05,0,3.71-1.662,3.71-3.709v-4.945h1.236c1.366,0,2.474-1.107,2.474-2.475
				V45.824c0.004-1.791-0.777-3.496-2.138-4.662l4.253-3.025c3.314-2.355,5.29-6.164,5.304-10.229v-17.88
				c0-0.493-0.292-0.938-0.742-1.135L59.062,1.413c-0.312-0.134-0.666-0.134-0.979,0l-17.32,7.479
				c-0.451,0.196-0.743,0.642-0.742,1.135v4.886H21.313c-2.621,0.001-4.958,1.655-5.828,4.127L8.201,39.734
				c-3.023,0.445-5.266,3.035-5.274,6.09v18.547C2.927,65.738,4.034,66.846,5.4,66.846z M19,71.791c0,0.682-0.553,1.236-1.236,1.236
				h-7.418c-0.683,0-1.237-0.555-1.237-1.236v-4.945H19V71.791z M14.055,64.371h-2.473v-2.473h2.473V64.371z M63.514,71.791
				c0,0.682-0.554,1.236-1.237,1.236h-7.418c-0.683,0-1.237-0.555-1.237-1.236v-4.945h9.893V71.791z M61.041,64.371h-2.473v-2.473
				h2.473V64.371z M42.494,10.839l16.074-6.944l16.073,6.944v17.063c-0.012,3.266-1.601,6.325-4.265,8.215l-11.809,8.412
				l-11.81-8.409c-2.665-1.888-4.252-4.948-4.265-8.213V10.839z M61.041,47.061c0.683,0,1.235,0.555,1.235,1.236v2.475
				c0,0.684-0.553,1.234-1.235,1.234h-7.42c-0.683,0-1.235-0.551-1.235-1.234c0-2.049,1.661-3.711,3.709-3.711H61.041z
				 M40.021,22.333v2.472h-8.655v-2.472H40.021z M40.021,19.859h-2.473v-2.473h2.473V19.859z M17.818,19.859
				c0.523-1.481,1.924-2.473,3.495-2.473h13.762v2.473h-3.709c-1.366,0-2.473,1.107-2.473,2.474v2.472
				c0,1.366,1.107,2.474,2.473,2.474h8.655v0.629c0.015,4.066,1.989,7.875,5.305,10.229l2.114,1.504H10.855L17.818,19.859z
				 M5.4,45.824c0-2.049,1.66-3.709,3.708-3.709h41.806l3.736,2.66c-2.773,0.668-4.73,3.145-4.738,5.996
				c0,2.049,1.66,3.709,3.708,3.709h7.42c2.048,0,3.709-1.66,3.709-3.709v-2.475c-0.005-1.525-0.944-2.895-2.367-3.447l3.061-2.18
				c1.109,0.662,1.785,1.861,1.779,3.154l0.001,18.547h-3.71v-2.473c0-1.365-1.106-2.473-2.473-2.473h-2.473
				c-1.366,0-2.474,1.107-2.474,2.473v2.473H16.528v-2.473c0-1.365-1.107-2.473-2.473-2.473h-2.473
				c-1.366,0-2.474,1.107-2.474,2.473v2.473H5.4V45.824z"/>
		</g>
		<g id="Shape_16_">
			<path fill="#222222" d="M25.183,19.859h-2.116c-1.571,0.002-2.972,0.992-3.499,2.474l-4.642,13.19
				c-0.227,0.645,0.112,1.35,0.756,1.577s1.35-0.112,1.577-0.756l4.641-13.186c0.175-0.496,0.642-0.826,1.166-0.826h2.116
				c0.683,0,1.236-0.554,1.236-1.237C26.419,20.413,25.866,19.859,25.183,19.859z"/>
		</g>
		<g id="Shape_14_">
			<path fill="#222222" d="M11.583,54.48H19c2.05,0,3.711-1.66,3.711-3.709c-0.005-3.414-2.771-6.18-6.183-6.184h-4.945
				c-2.049,0-3.71,1.662-3.71,3.709v2.475C7.873,52.82,9.534,54.48,11.583,54.48z M10.346,48.297c0-0.682,0.553-1.236,1.236-1.236
				h4.945c2.049,0,3.709,1.662,3.709,3.711c0,0.684-0.554,1.234-1.237,1.234h-7.417c-0.683,0-1.236-0.551-1.236-1.234V48.297z"/>
		</g>
		<g id="Shape_6_">
			<path fill="#222222" d="M27.656,61.898h17.311c1.366,0,2.473-1.107,2.473-2.473V54.48c0-1.367-1.106-2.475-2.473-2.475H27.656
				c-1.365,0-2.473,1.107-2.473,2.475v4.945C25.183,60.791,26.291,61.898,27.656,61.898z M27.656,54.48h17.311v4.945H27.656V54.48z"
				/>
		</g>
	</g>
</g>
</svg>
