<?xml version="1.0" encoding="utf-8"?>
<!-- Generator: Adobe Illustrator 15.0.0, SVG Export Plug-In . SVG Version: 6.00 Build 0)  -->
<!DOCTYPE svg PUBLIC "-//W3C//DTD SVG 1.1//EN" "http://www.w3.org/Graphics/SVG/1.1/DTD/svg11.dtd">
<svg version="1.1" id="Layer_1" xmlns="http://www.w3.org/2000/svg" xmlns:xlink="http://www.w3.org/1999/xlink" x="0px" y="0px"
	 width="116px" height="60.25px" viewBox="0 0 116 60.25" enable-background="new 0 0 116 60.25" xml:space="preserve">
<g display="none">
	<g display="inline">
		<g>
			<path fill="#222222" d="M106.406,51.375v-2.103h5.002c0.39,0,0.91-0.063,1.173-0.365c0.279-0.323,0.244-0.859,0.231-0.91
				c-0.002-0.024-0.005-0.074-0.005-0.125v-4.9c0-2.595-0.646-3.767-1.114-4.127l0.021-0.022l-0.072-0.069h-0.104
				c-0.478-0.128-0.793-0.503-0.828-0.951C108.851,14.249,96.76,4.767,94.355,3.105l-0.064-0.044H83.05
				c-1.095,0-1.844,0.232-2.165,0.672c-0.362,0.494-0.179,1.246-0.146,1.315c0.021,0.073,0.037,0.18,0.037,0.287v43.937h6.926v2.103
				h-7.978c-0.58,0-1.052-0.472-1.052-1.052V5.5c-0.123-0.57-0.307-1.888,0.517-3.01c0.745-1.017,2.045-1.532,3.861-1.532h11.553
				c0.192,0,0.381,0.052,0.544,0.151c0.623,0.377,15.273,9.528,17.6,35.807l0.01,0.115l0.095,0.066
				c0.939,0.663,2.06,2.22,2.06,5.874v4.834c0.031,0.362,0.068,1.545-0.74,2.479c-0.433,0.498-1.263,1.091-2.762,1.091H106.406z"/>
			<path fill="#FEC400" d="M94.603,1.208c0.146,0,0.29,0.04,0.415,0.115c0.618,0.374,15.164,9.46,17.479,35.614l0.021,0.231
				l0.189,0.133c0.729,0.515,1.953,1.936,1.953,5.67l0.002,4.879c0.028,0.315,0.063,1.411-0.682,2.27
				c-0.397,0.459-1.167,1.005-2.572,1.005h-4.752v-1.603h4.752c0.643,0,1.101-0.151,1.363-0.453
				c0.315-0.365,0.312-0.903,0.292-1.082h0.002c-0.006-0.038-0.008-0.076-0.008-0.115v-4.9c0-2.489-0.596-3.826-1.183-4.303
				l0.02-0.02l-0.149-0.147h-0.164l-0.015-0.004c-0.336-0.084-0.58-0.371-0.607-0.716c-1.868-23.666-14.041-33.21-16.462-34.883
				l-0.128-0.089h-0.156H83.05c-1.194,0-1.991,0.261-2.366,0.774c-0.393,0.536-0.26,1.28-0.193,1.509l-0.002,0
				c0.024,0.078,0.037,0.159,0.037,0.241v43.687v0.5h0.5h6.426v1.603h-7.728c-0.442,0-0.802-0.359-0.802-0.802V5.5V5.444
				l-0.013-0.055c-0.109-0.481-0.281-1.712,0.48-2.751c0.696-0.949,1.928-1.43,3.66-1.43H94.603 M94.603,0.708H83.05
				c-1.901,0-3.268,0.549-4.063,1.634c-0.885,1.208-0.69,2.604-0.564,3.158v44.823c0,0.719,0.583,1.302,1.302,1.302h8.228v-2.603
				h-6.926V5.335c0-0.133-0.021-0.266-0.061-0.392c-0.003-0.006-0.169-0.666,0.122-1.063c0.269-0.368,0.966-0.57,1.963-0.57h11.163
				c2.035,1.406,14.382,10.875,16.248,34.511c0.044,0.563,0.444,1.027,0.984,1.162c0.323,0.148,1.112,1.124,1.112,3.988v4.9
				c0,0.063,0.004,0.124,0.013,0.186c0.001,0.004,0.03,0.444-0.178,0.686c-0.212,0.243-0.707,0.279-0.984,0.279h-5.252v2.603h5.252
				c1.594,0,2.484-0.641,2.95-1.177c0.865-0.998,0.838-2.241,0.802-2.643v-4.834c0-3.82-1.227-5.416-2.165-6.078
				C110.657,10.488,95.908,1.278,95.276,0.896C95.073,0.772,94.841,0.708,94.603,0.708L94.603,0.708z M111.541,39.003
				c-0.001-0.001-0.003-0.001-0.003-0.001C111.539,39.002,111.54,39.002,111.541,39.003L111.541,39.003z M111.545,39.004
				l-0.004-0.001L111.545,39.004L111.545,39.004z"/>
		</g>
	</g>
	<g display="inline">
		<g>
			<path fill="#222222" d="M96.529,58.902c-5.6,0-10.155-4.555-10.155-10.153c0-5.6,4.556-10.155,10.155-10.155
				c5.599,0,10.153,4.556,10.153,10.155C106.683,54.348,102.128,58.902,96.529,58.902z M96.529,40.697
				c-4.439,0-8.052,3.612-8.052,8.052S92.09,56.8,96.529,56.8s8.051-3.611,8.051-8.051S100.969,40.697,96.529,40.697z"/>
			<path fill="#FEC400" d="M96.529,38.844c5.461,0,9.903,4.443,9.903,9.905c0,5.461-4.442,9.903-9.903,9.903
				c-5.462,0-9.905-4.442-9.905-9.903C86.624,43.287,91.067,38.844,96.529,38.844 M96.529,57.05c4.577,0,8.301-3.724,8.301-8.301
				s-3.724-8.302-8.301-8.302s-8.302,3.725-8.302,8.302S91.952,57.05,96.529,57.05 M96.529,38.344
				c-5.737,0-10.405,4.668-10.405,10.405c0,5.736,4.668,10.403,10.405,10.403c5.736,0,10.403-4.667,10.403-10.403
				C106.933,43.012,102.266,38.344,96.529,38.344L96.529,38.344z M96.529,56.55c-4.303,0-7.802-3.5-7.802-7.801
				c0-4.303,3.499-7.802,7.802-7.802c4.301,0,7.801,3.499,7.801,7.802C104.33,53.05,100.83,56.55,96.529,56.55L96.529,56.55z"/>
		</g>
	</g>
	<g display="inline">
		<g>
			<path fill="#222222" d="M18.214,58.902c-5.6,0-10.155-4.555-10.155-10.153c0-5.6,4.555-10.155,10.155-10.155
				c5.599,0,10.154,4.556,10.154,10.155C28.368,54.348,23.813,58.902,18.214,58.902z M18.214,40.697
				c-4.439,0-8.051,3.612-8.051,8.052s3.612,8.051,8.051,8.051s8.051-3.611,8.051-8.051S22.653,40.697,18.214,40.697z"/>
			<path fill="#FEC400" d="M18.214,38.844c5.461,0,9.904,4.443,9.904,9.905c0,5.461-4.443,9.903-9.904,9.903
				c-5.461,0-9.905-4.442-9.905-9.903C8.309,43.287,12.752,38.844,18.214,38.844 M18.214,57.05c4.577,0,8.301-3.724,8.301-8.301
				s-3.724-8.302-8.301-8.302s-8.301,3.725-8.301,8.302S13.637,57.05,18.214,57.05 M18.214,38.344
				c-5.737,0-10.405,4.668-10.405,10.405c0,5.736,4.667,10.403,10.405,10.403c5.736,0,10.404-4.667,10.404-10.403
				C28.618,43.012,23.95,38.344,18.214,38.344L18.214,38.344z M18.214,56.55c-4.302,0-7.801-3.5-7.801-7.801
				c0-4.303,3.5-7.802,7.801-7.802c4.301,0,7.801,3.499,7.801,7.802C26.015,53.05,22.515,56.55,18.214,56.55L18.214,56.55z"/>
		</g>
	</g>
	<g display="inline">
		<g>
			<path fill="#222222" d="M86.595,23.673c-1.43,0-2.477-0.42-3.109-1.249c-0.715-0.935-0.607-2.042-0.528-2.475l0.004-17.866h2.104
				V20.04c0,0.092-0.013,0.185-0.037,0.275c-0.004,0.017-0.109,0.535,0.136,0.842c0.286,0.36,1.02,0.414,1.432,0.414h16.648h0.125
				l0.002-0.003c0.401-0.021,1.426-0.144,2.128-0.824c0.488-0.473,0.758-1.164,0.804-2.056l2.105,0.01
				c-0.057,1.498-0.551,2.702-1.472,3.581c-1.358,1.295-3.156,1.396-3.675,1.396L86.595,23.673z"/>
			<path fill="#FEC400" d="M84.814,2.334V20.04c0,0.07-0.01,0.141-0.034,0.233c-0.006,0.026-0.136,0.636,0.187,1.039
				c0.335,0.42,1.07,0.509,1.628,0.509l16.614,0l0.395,0.021l0.013-0.042c0.529-0.056,1.404-0.246,2.056-0.876
				c0.49-0.475,0.778-1.141,0.861-1.984l1.609,0.008c-0.098,1.311-0.561,2.369-1.379,3.15c-1.291,1.231-3.008,1.327-3.503,1.327
				l-0.102-0.001H86.595c-1.348,0-2.327-0.387-2.91-1.15c-0.654-0.855-0.555-1.878-0.481-2.278l0.008-0.044v-0.045V2.334H84.814
				 M85.314,1.834h-2.604v18.071c-0.088,0.48-0.196,1.662,0.576,2.671c0.683,0.894,1.796,1.347,3.308,1.347h16.564
				c0.026,0.001,0.06,0.001,0.102,0.001c0.547,0,2.422-0.105,3.848-1.465c1.021-0.975,1.545-2.324,1.554-4.01l-2.604-0.013
				c-0.005,0.943-0.251,1.659-0.734,2.127c-0.807,0.781-2.092,0.756-2.089,0.758c-0.019-0.001-0.036-0.001-0.055-0.001H86.595
				c-0.615,0-1.077-0.12-1.236-0.32c-0.15-0.188-0.104-0.554-0.09-0.62c0.03-0.111,0.046-0.226,0.046-0.341V1.834L85.314,1.834z"/>
		</g>
	</g>
	<g display="inline">
		<g>
			<path fill="#222222" d="M27.304,48.75v-2.104h51.368v-8.05H3.16v8.05h5.526v2.104H3.372c-1.276,0-2.314-1.039-2.314-2.315v-7.626
				c0-1.276,1.038-2.315,2.314-2.315h76.352c0.58,0,1.052,0.472,1.052,1.051v10.153c0,0.58-0.472,1.053-1.052,1.053H27.304z"/>
			<path fill="#FEC400" d="M79.724,36.743c0.442,0,0.802,0.359,0.802,0.801v10.153c0,0.442-0.359,0.803-0.802,0.803H27.554v-1.604
				h50.868h0.5v-0.5v-7.55v-0.5h-0.5H3.41h-0.5v0.5v7.55v0.5h0.5h5.026V48.5H3.372c-1.138,0-2.064-0.927-2.064-2.065v-7.626
				c0-1.139,0.926-2.065,2.064-2.065H79.724 M79.724,36.243H3.372c-1.415,0-2.564,1.15-2.564,2.565v7.626
				c0,1.414,1.15,2.565,2.564,2.565h5.564v-2.604H3.41v-7.55h75.012v7.55H27.054V49h52.669c0.718,0,1.302-0.584,1.302-1.303V37.544
				C81.025,36.826,80.441,36.243,79.724,36.243L79.724,36.243z"/>
		</g>
	</g>
	<g display="inline">
		<g>
			<rect x="23.232" y="30.191" fill="#222222" width="32.016" height="2.103"/>
			<path fill="#FEC400" d="M54.999,30.441v1.603H23.482v-1.603H54.999 M55.499,29.941H22.982v2.603h32.516V29.941L55.499,29.941z"/>
		</g>
	</g>
	<g display="inline">
		<g>
			<path fill="#222222" d="M5.76,32.391c-0.724,0-1.769-0.152-2.633-0.879c-1.043-0.876-1.503-2.287-1.366-4.195
				c0.214-3.002,0.565-4.76,0.798-5.923c0.151-0.758,0.25-1.25,0.25-1.704c0-1.626,0.405-3.609,3.563-4.512
				c0.62-0.178,1.287-0.35,1.993-0.531c2.031-0.524,4.279-1.104,5.458-1.811c0.201-0.12,0.522-0.381,0.956-0.738
				c2.234-1.83,7.466-6.118,17.484-6.118c0.627,0,1.272,0.017,1.938,0.051c0.124-0.004,0.307-0.01,0.565-0.01
				c1.829,0,6.77,0.282,13.148,2.892c6.692,2.738,10.505,5.203,11.514,5.893l0.046,0.031l0.055,0.009
				c1.883,0.306,11.448,1.952,14.848,4.332c1.588,1.112,2.42,2.306,2.471,3.549c0.025,0.581-0.122,1.135-0.436,1.646l-0.058,0.094
				l0.03,0.105c0.415,1.463,1.132,5.115-1.168,7.415c-0.195,0.195-0.466,0.307-0.742,0.307h-6.145v-2.103H74l0.074-0.108
				c1.353-1.978,0.169-5.321,0.118-5.463c-0.178-0.467-0.071-0.901,0.282-1.169c0.111-0.112,0.294-0.344,0.269-0.663
				c-0.019-0.249-0.21-0.932-1.574-1.887c-2.706-1.894-11.213-3.547-14.264-4.024c-0.164-0.025-0.321-0.091-0.456-0.188
				c-0.163-0.116-4.005-2.831-11.333-5.829c-6.201-2.537-11.035-2.734-12.369-2.734c-0.3,0-0.462,0.009-0.472,0.01l-0.122,0
				c-0.661-0.036-1.301-0.053-1.919-0.053c-9.241,0-13.89,3.811-16.124,5.642c-0.463,0.38-0.862,0.708-1.206,0.915
				c-1.441,0.865-3.742,1.458-5.967,2.031L8.822,16.7c-0.669,0.172-1.301,0.336-1.873,0.5c-1.885,0.539-2.039,1.446-2.039,2.49
				c0,0.666-0.127,1.304-0.289,2.111c-0.235,1.172-0.558,2.776-0.765,5.666c-0.084,1.192,0.122,2.009,0.613,2.429
				c0.299,0.255,0.742,0.39,1.281,0.39c0.354,0,0.642-0.059,0.673-0.067c0.071-0.016,0.163-0.026,0.236-0.026h3.355v2.103H6.798
				C6.53,32.341,6.179,32.391,5.76,32.391z"/>
			<path fill="#FEC400" d="M32.261,6.23c0.629,0,1.277,0.017,1.973,0.051c0.098-0.004,0.277-0.01,0.531-0.01
				c1.813,0,6.716,0.28,13.053,2.874c6.669,2.728,10.464,5.181,11.468,5.868l0.092,0.063l0.11,0.018
				c1.874,0.304,11.389,1.94,14.744,4.29c1.521,1.065,2.316,2.193,2.364,3.355c0.023,0.53-0.111,1.036-0.398,1.504l-0.115,0.187
				l0.06,0.212c0.403,1.421,1.103,4.964-1.104,7.17c-0.148,0.148-0.354,0.233-0.565,0.233h-5.895v-1.603h5.291h0.264l0.149-0.218
				c1.423-2.081,0.199-5.542,0.143-5.696c-0.064-0.17-0.174-0.594,0.201-0.876l0.034-0.025l0.029-0.031
				c0.103-0.108,0.337-0.407,0.305-0.825c-0.027-0.354-0.281-1.094-1.681-2.074c-3.307-2.314-14.258-4.048-14.369-4.066
				c-0.125-0.02-0.245-0.069-0.352-0.147c-0.161-0.115-4.026-2.846-11.381-5.855c-6.243-2.554-11.118-2.752-12.463-2.752
				c-0.31,0-0.478,0.01-0.484,0.01h-0.096c-0.651-0.035-1.302-0.053-1.933-0.053c-9.33,0-14.026,3.848-16.284,5.699
				c-0.454,0.373-0.847,0.695-1.175,0.893c-1.411,0.846-3.693,1.434-5.901,2.003l-0.116,0.03c-0.67,0.173-1.304,0.337-1.877,0.5
				c-2.05,0.586-2.22,1.626-2.22,2.731c0,0.641-0.125,1.268-0.284,2.062c-0.237,1.179-0.561,2.793-0.769,5.698
				c-0.09,1.275,0.146,2.162,0.7,2.636c0.35,0.299,0.835,0.45,1.443,0.45c0.39,0,0.698-0.064,0.713-0.069
				c0.068-0.016,0.141-0.024,0.196-0.024h3.105v1.603H6.798H6.75l-0.046,0.009c-0.21,0.04-0.545,0.088-0.944,0.088
				c-0.682,0-1.665-0.143-2.473-0.82c-0.978-0.821-1.408-2.162-1.278-3.986c0.213-2.985,0.563-4.734,0.797-5.905
				c0.151-0.759,0.251-1.26,0.251-1.739c0-1.539,0.384-3.415,3.382-4.271c0.618-0.177,1.283-0.348,2.034-0.542
				c2-0.516,4.267-1.101,5.476-1.826c0.216-0.129,0.531-0.385,0.985-0.759C17.148,10.478,22.333,6.23,32.261,6.23 M32.261,5.73
				c-10.105,0-15.332,4.281-17.643,6.175c-0.394,0.324-0.734,0.602-0.925,0.716c-1.146,0.688-3.376,1.263-5.344,1.771
				c-0.726,0.187-1.411,0.363-2.046,0.545c-3.356,0.959-3.744,3.171-3.744,4.752c0,0.431-0.097,0.916-0.244,1.649
				c-0.234,1.17-0.588,2.938-0.803,5.96c-0.143,1.992,0.347,3.475,1.455,4.404c0.903,0.759,1.98,0.938,2.794,0.938
				c0.452,0,0.822-0.056,1.038-0.097h3.467v-2.603H6.66c-0.099,0-0.209,0.015-0.305,0.036c-0.005,0.001-0.267,0.058-0.604,0.058
				c-0.36,0-0.807-0.064-1.118-0.33c-0.533-0.455-0.58-1.459-0.526-2.221c0.205-2.858,0.525-4.463,0.76-5.635
				c0.164-0.822,0.293-1.471,0.293-2.16c0-1.007,0.133-1.757,1.857-2.25c0.603-0.172,1.272-0.344,1.981-0.527
				c2.244-0.578,4.563-1.176,6.034-2.059c0.353-0.212,0.743-0.531,1.235-0.935c2.263-1.854,6.813-5.585,15.966-5.585
				c0.614,0,1.25,0.017,1.906,0.052c0.023,0.001,0.046,0.002,0.069,0.002c0.027,0,0.055-0.001,0.083-0.002
				c0.009,0,0.166-0.009,0.456-0.009c1.441,0,6.163,0.215,12.274,2.715c7.435,3.042,11.244,5.773,11.281,5.8
				c0.167,0.122,0.36,0.202,0.564,0.233c3.034,0.475,11.492,2.115,14.159,3.981c1.313,0.919,1.456,1.535,1.469,1.702
				c0.018,0.227-0.123,0.395-0.17,0.444c-0.46,0.347-0.573,0.912-0.367,1.453c0.013,0.035,1.206,3.343-0.089,5.236h-5.791v2.603
				h6.395c0.345,0,0.676-0.137,0.919-0.38c2.38-2.38,1.676-6.093,1.231-7.66c0.264-0.429,0.505-1.032,0.473-1.787
				c-0.055-1.326-0.923-2.585-2.577-3.743c-3.43-2.401-12.873-4.036-14.951-4.374c-1.007-0.689-4.837-3.167-11.561-5.918
				c-6.48-2.652-11.52-2.911-13.243-2.911c-0.265,0-0.451,0.006-0.553,0.011C33.542,5.747,32.892,5.73,32.261,5.73L32.261,5.73z"/>
		</g>
	</g>
	<g display="inline">
		<g>
			<path fill="#222222" d="M16.813,36.846c-4.055,0-7.353-3.299-7.353-7.354s3.298-7.353,7.353-7.353s7.353,3.298,7.353,7.353
				S20.868,36.846,16.813,36.846z M16.813,24.242c-2.895,0-5.25,2.355-5.25,5.25s2.355,5.25,5.25,5.25
				c2.896,0,5.251-2.355,5.251-5.25S19.709,24.242,16.813,24.242z"/>
			<path fill="#FEC400" d="M16.813,22.389c3.917,0,7.103,3.186,7.103,7.103s-3.187,7.104-7.103,7.104S9.71,33.409,9.71,29.492
				S12.897,22.389,16.813,22.389 M16.813,34.992c3.033,0,5.501-2.467,5.501-5.5c0-3.032-2.468-5.5-5.501-5.5s-5.5,2.468-5.5,5.5
				C11.313,32.525,13.78,34.992,16.813,34.992 M16.813,21.889c-4.192,0-7.603,3.411-7.603,7.603s3.411,7.604,7.603,7.604
				s7.603-3.411,7.603-7.604S21.006,21.889,16.813,21.889L16.813,21.889z M16.813,34.492c-2.757,0-5-2.242-5-5s2.243-5,5-5
				s5.001,2.242,5.001,5S19.571,34.492,16.813,34.492L16.813,34.492z"/>
		</g>
	</g>
	<g display="inline">
		<g>
			<path fill="#222222" d="M61.869,36.846c-4.055,0-7.354-3.299-7.354-7.354s3.299-7.353,7.354-7.353s7.353,3.298,7.353,7.353
				S65.923,36.846,61.869,36.846z M61.869,24.242c-2.896,0-5.251,2.355-5.251,5.25s2.355,5.25,5.251,5.25
				c2.895,0,5.25-2.355,5.25-5.25S64.764,24.242,61.869,24.242z"/>
			<path fill="#FEC400" d="M61.869,22.389c3.917,0,7.103,3.186,7.103,7.103s-3.187,7.104-7.103,7.104
				c-3.917,0-7.104-3.187-7.104-7.104S57.952,22.389,61.869,22.389 M61.869,34.992c3.033,0,5.5-2.467,5.5-5.5
				c0-3.032-2.467-5.5-5.5-5.5s-5.501,2.468-5.501,5.5C56.368,32.525,58.835,34.992,61.869,34.992 M61.869,21.889
				c-4.193,0-7.604,3.411-7.604,7.603s3.411,7.604,7.604,7.604c4.192,0,7.603-3.411,7.603-7.604S66.061,21.889,61.869,21.889
				L61.869,21.889z M61.869,34.492c-2.757,0-5.001-2.242-5.001-5s2.244-5,5.001-5c2.757,0,5,2.242,5,5S64.625,34.492,61.869,34.492
				L61.869,34.492z"/>
		</g>
	</g>
	<g display="inline">
		<g>
			<path fill="#222222" d="M21.341,16.539c-0.349-0.007-0.67-0.188-0.86-0.482c-0.189-0.293-0.22-0.661-0.082-0.983l1.051-2.45
				c0.166-0.387,0.544-0.638,0.965-0.638c0.143,0,0.282,0.029,0.415,0.086c0.258,0.11,0.458,0.315,0.563,0.575
				c0.104,0.261,0.101,0.547-0.01,0.805l-0.438,1.02l28.786,0.635l-0.014-0.268c-0.024-0.499,0.31-0.949,0.796-1.07
				c0.084-0.021,0.17-0.032,0.255-0.032c0.482,0,0.902,0.328,1.019,0.797l0.35,1.4c0.08,0.316,0.006,0.656-0.198,0.911
				c-0.201,0.251-0.5,0.396-0.821,0.396L21.341,16.539z"/>
			<path fill="#FEC400" d="M22.415,12.236c0.108,0,0.215,0.022,0.316,0.065c0.197,0.084,0.349,0.24,0.428,0.439
				s0.077,0.417-0.007,0.613l-0.292,0.679l-0.292,0.681l0.741,0.017l28.146,0.621l0.537,0.012l-0.026-0.537
				c-0.019-0.38,0.236-0.723,0.607-0.815c0.064-0.016,0.129-0.024,0.194-0.024c0.368,0,0.687,0.25,0.776,0.607l0.35,1.402
				c0.061,0.24,0.004,0.499-0.151,0.693c-0.153,0.191-0.381,0.301-0.643,0.301c0,0-0.001,0-0.001,0l-31.752-0.7
				c-0.266-0.005-0.511-0.143-0.655-0.367c-0.145-0.224-0.168-0.504-0.063-0.749l1.051-2.451
				C21.805,12.427,22.094,12.236,22.415,12.236 M22.415,11.736c-0.505,0-0.984,0.296-1.195,0.789l-1.051,2.451
				c-0.17,0.397-0.132,0.854,0.102,1.217c0.234,0.363,0.634,0.587,1.065,0.596l31.751,0.7c0.009,0,0.02,0,0.029,0
				c0.395,0,0.769-0.18,1.016-0.489c0.254-0.317,0.345-0.734,0.246-1.127l-0.35-1.401c-0.148-0.591-0.679-0.986-1.262-0.986
				c-0.104,0-0.21,0.013-0.316,0.039c-0.613,0.153-1.015,0.717-0.985,1.325l-28.146-0.621l0.292-0.679
				c0.283-0.661-0.023-1.426-0.684-1.708C22.76,11.77,22.586,11.736,22.415,11.736L22.415,11.736z"/>
		</g>
	</g>
	<g display="inline">
		<g>
			<path fill="#222222" d="M35.609,16.54c-0.511,0-0.945-0.365-1.033-0.868l-1.051-5.952c-0.1-0.571,0.282-1.117,0.853-1.218
				c0.062-0.011,0.124-0.016,0.184-0.016c0.511,0,0.945,0.365,1.034,0.868l1.051,5.953c0.048,0.276-0.013,0.556-0.174,0.786
				s-0.402,0.383-0.679,0.432C35.731,16.534,35.67,16.54,35.609,16.54z"/>
			<path fill="#FEC400" d="M34.562,8.735c0.389,0,0.72,0.278,0.787,0.662l1.05,5.952c0.037,0.21-0.01,0.423-0.133,0.599
				c-0.123,0.175-0.306,0.292-0.515,0.329c-0.048,0.008-0.096,0.013-0.143,0.013c-0.389,0-0.72-0.278-0.787-0.662l-1.051-5.951
				c-0.077-0.436,0.215-0.852,0.649-0.929C34.468,8.739,34.515,8.735,34.562,8.735 M34.562,8.235c-0.075,0-0.151,0.007-0.228,0.02
				c-0.708,0.125-1.18,0.8-1.056,1.508l1.051,5.952c0.11,0.631,0.66,1.075,1.279,1.075c0.075,0,0.151-0.007,0.228-0.02
				c0.708-0.125,1.18-0.8,1.056-1.507L35.841,9.31C35.73,8.679,35.183,8.235,34.562,8.235L34.562,8.235z"/>
		</g>
	</g>
</g>
<g>
	<g>
		<g>
			<path fill="#222222" d="M112.246,51.869h-5.235v-2.594h5.235c0.275,0,0.771-0.037,0.981-0.279c0.207-0.24,0.178-0.68,0.177-0.684
				c-0.008-0.063-0.012-0.125-0.012-0.184V43.24c0-2.855-0.787-3.828-1.109-3.977c-0.538-0.133-0.938-0.598-0.981-1.156
				C109.44,14.539,97.13,5.099,95.102,3.696H83.971c-0.994,0-1.689,0.202-1.956,0.568c-0.291,0.396-0.125,1.054-0.122,1.061
				c0.039,0.126,0.06,0.258,0.06,0.39v43.561h6.906v2.594h-8.204c-0.717,0-1.298-0.582-1.298-1.299V5.88
				c-0.125-0.552-0.319-1.945,0.564-3.149c0.792-1.081,2.153-1.629,4.05-1.629h11.519c0.238,0,0.469,0.065,0.673,0.187
				c0.63,0.381,15.335,9.564,17.666,35.891c0.936,0.66,2.158,2.252,2.158,6.061v4.82c0.037,0.4,0.063,1.639-0.799,2.635
				C114.724,51.23,113.836,51.869,112.246,51.869z M112.378,39.283h0.004H112.378z M112.375,39.283c0,0,0.002,0,0.003,0
				C112.377,39.283,112.376,39.283,112.375,39.283z M112.268,39.256L112.268,39.256L112.268,39.256z"/>
		</g>
	</g>
	<g>
		<g>
			<path fill="#222222" d="M97.411,59.375c-5.721,0-10.374-4.656-10.374-10.373c0-5.721,4.653-10.375,10.374-10.375
				c5.72,0,10.372,4.654,10.372,10.375C107.783,54.719,103.131,59.375,97.411,59.375z M97.411,41.223
				c-4.29,0-7.778,3.488-7.778,7.779c0,4.287,3.488,7.777,7.778,7.777c4.288,0,7.777-3.49,7.777-7.777
				C105.188,44.711,101.699,41.223,97.411,41.223z"/>
		</g>
	</g>
	<g>
		<g>
			<path fill="#222222" d="M19.326,59.375c-5.72,0-10.374-4.656-10.374-10.373c0-5.721,4.653-10.375,10.374-10.375
				c5.719,0,10.373,4.654,10.373,10.375C29.699,54.719,25.045,59.375,19.326,59.375z M19.326,41.223
				c-4.29,0-7.778,3.488-7.778,7.779c0,4.287,3.489,7.777,7.778,7.777c4.289,0,7.778-3.49,7.778-7.777
				C27.104,44.711,23.614,41.223,19.326,41.223z"/>
		</g>
	</g>
	<g>
		<g>
			<path fill="#222222" d="M104.123,24.25c-0.043,0-0.076,0-0.101-0.002H87.506c-1.508,0-2.617-0.451-3.298-1.342
				c-0.771-1.008-0.662-2.185-0.574-2.665V2.225h2.596v18.151c0,0.115-0.016,0.229-0.046,0.34c-0.016,0.066-0.061,0.431,0.089,0.618
				c0.158,0.2,0.619,0.32,1.233,0.32h16.537c0.018,0,0.035,0,0.054,0l0,0c-0.003-0.002,1.279,0.023,2.082-0.756
				c0.482-0.466,0.729-1.181,0.732-2.121l2.597,0.012c-0.009,1.681-0.53,3.026-1.55,3.999
				C106.538,24.143,104.667,24.25,104.123,24.25z"/>
		</g>
	</g>
	<g>
		<g>
			<path fill="#222222" d="M80.654,49.252H28.14v-2.596h51.217v-7.529H4.565v7.529h5.511v2.596H4.528
				c-1.41,0-2.557-1.148-2.557-2.559V39.09c0-1.41,1.147-2.557,2.557-2.557h76.126c0.717,0,1.298,0.582,1.298,1.297v10.123
				C81.952,48.67,81.371,49.252,80.654,49.252z"/>
		</g>
	</g>
	<g>
		<g>
			<rect x="24.08" y="30.25" fill="#FFFFFF" width="32.42" height="2.594"/>
		</g>
	</g>
	<g>
		<g>
			<path fill="#FFFFFF" d="M6.909,32.939c-0.812,0-1.885-0.176-2.786-0.934c-1.104-0.928-1.593-2.404-1.451-4.391
				c0.214-3.014,0.568-4.777,0.801-5.943c0.146-0.731,0.242-1.215,0.242-1.645c0-1.576,0.387-3.782,3.733-4.737
				c0.634-0.183,1.317-0.358,2.04-0.545c1.962-0.505,4.186-1.079,5.329-1.765c0.189-0.114,0.53-0.392,0.922-0.714
				c2.448-2.006,8.177-6.699,19.536-6.105c0.761-0.034,6.302-0.158,13.755,2.892c6.703,2.742,10.521,5.214,11.526,5.9
				c2.072,0.337,11.488,1.967,14.908,4.36c1.648,1.155,2.514,2.411,2.568,3.733c0.031,0.752-0.209,1.354-0.471,1.781
				c0.442,1.563,1.145,5.264-1.228,7.635c-0.242,0.246-0.573,0.381-0.918,0.381h-6.375V30.25h5.773
				c1.292-1.889,0.102-5.186,0.088-5.223c-0.205-0.539-0.092-1.104,0.366-1.447c0.047-0.051,0.188-0.219,0.17-0.443
				c-0.013-0.168-0.155-0.781-1.464-1.697c-2.66-1.861-11.093-3.497-14.118-3.971c-0.204-0.03-0.396-0.11-0.563-0.232
				c-0.037-0.027-3.835-2.75-11.248-5.783C40.729,8.46,35.409,8.753,35.356,8.756c-0.051,0.003-0.102,0.004-0.152,0.001
				C24.799,8.196,19.793,12.3,17.385,14.274c-0.491,0.402-0.879,0.72-1.231,0.932c-1.467,0.879-3.779,1.476-6.017,2.052
				c-0.707,0.183-1.375,0.354-1.975,0.526c-1.719,0.491-1.852,1.239-1.852,2.243c0,0.687-0.129,1.335-0.293,2.154
				c-0.234,1.168-0.553,2.768-0.758,5.619c-0.054,0.758-0.006,1.758,0.524,2.213c0.601,0.512,1.707,0.275,1.717,0.271
				c0.096-0.021,0.206-0.035,0.304-0.035H11.4v2.594H7.944C7.729,32.885,7.359,32.939,6.909,32.939z"/>
		</g>
	</g>
	<g>
		<g>
			<path fill="#FFFFFF" d="M17.93,37.383c-4.181,0-7.581-3.4-7.581-7.582c0-4.18,3.4-7.58,7.581-7.58c4.18,0,7.581,3.4,7.581,7.58
				C25.511,33.982,22.11,37.383,17.93,37.383z M17.93,24.814c-2.749,0-4.986,2.238-4.986,4.986c0,2.75,2.237,4.988,4.986,4.988
				s4.986-2.238,4.986-4.988C22.916,27.053,20.679,24.814,17.93,24.814z"/>
		</g>
	</g>
	<g>
		<g>
			<g>
				<path fill="#FFFFFF" d="M62.852,37.383c-4.18,0-7.581-3.4-7.581-7.582c0-4.18,3.4-7.58,7.581-7.58s7.581,3.4,7.581,7.58
					C70.433,33.982,67.032,37.383,62.852,37.383z M62.852,24.814c-2.75,0-4.986,2.238-4.986,4.986c0,2.75,2.236,4.988,4.986,4.988
					s4.986-2.238,4.986-4.988C67.838,27.053,65.602,24.814,62.852,24.814z"/>
			</g>
		</g>
	</g>
	<g>
		<g>
			<path fill="#FFFFFF" d="M54.125,17.834c-0.009,0-0.019,0-0.028-0.001l-31.658-0.698c-0.431-0.01-0.829-0.232-1.062-0.595
				c-0.233-0.362-0.271-0.817-0.102-1.214l1.048-2.443c0.282-0.659,1.043-0.964,1.703-0.682c0.659,0.283,0.964,1.045,0.682,1.704
				l-0.291,0.677l28.063,0.62c-0.031-0.606,0.371-1.168,0.981-1.322c0.694-0.173,1.399,0.25,1.574,0.944l0.348,1.397
				c0.099,0.392,0.008,0.808-0.245,1.124C54.892,17.654,54.519,17.834,54.125,17.834z"/>
		</g>
	</g>
	<g>
		<g>
			<path fill="#FFFFFF" d="M36.67,17.137c-0.618,0-1.166-0.443-1.276-1.072l-1.048-5.935c-0.124-0.706,0.347-1.379,1.053-1.503
				c0.708-0.125,1.379,0.347,1.502,1.051l1.048,5.935c0.124,0.705-0.347,1.379-1.053,1.503C36.82,17.13,36.744,17.137,36.67,17.137z
				"/>
		</g>
	</g>
</g>
</svg>
