<?xml version="1.0" encoding="utf-8"?>
<!-- Generator: Adobe Illustrator 24.1.2, SVG Export Plug-In . SVG Version: 6.00 Build 0)  -->
<svg version="1.1" id="Layer_1" xmlns="http://www.w3.org/2000/svg" xmlns:xlink="http://www.w3.org/1999/xlink" x="0px" y="0px"
	 viewBox="0 0 30 30" style="enable-background:new 0 0 30 30;" xml:space="preserve">
<style type="text/css">
	.st0{fill:#BA2326;}
	.st1{fill:#FFFFFF;}
</style>
<path class="st0" d="M15,30L15,30C6.7,30,0,23.3,0,15v0C0,6.7,6.7,0,15,0h0c8.3,0,15,6.7,15,15v0C30,23.3,23.3,30,15,30z"/>
<g>
	<path class="st1" d="M12.7,15.3c-2,0-3,1.1-3,2.8c0,1.7,1.5,2.8,2.9,2.8c2.5,0,8.1,0,8.1,0v3.9h-8.3c-3.8,0-6.9-3-6.9-6.6
		c0-3,1.8-6,5-6.7C10,10.9,9.6,9.9,9.6,8.6c0-3.7,3.2-5.4,5.8-5.4c1.9,0,3.7,0.7,5.1,2.5l-2.3,3c-0.9-1.3-1.9-1.3-2.4-1.3
		c-0.4,0-1.8,0.2-1.8,1.7c0,1.6,1.1,2.3,3.1,2.3h3.5v4H12.7z"/>
</g>
</svg>
