<?xml version="1.0" encoding="utf-8"?>
<!-- Generator: Adobe Illustrator 24.2.3, SVG Export Plug-In . SVG Version: 6.00 Build 0)  -->
<svg version="1.0" id="Layer_1" xmlns="http://www.w3.org/2000/svg" xmlns:xlink="http://www.w3.org/1999/xlink" x="0px" y="0px"
	 viewBox="0 0 51 51" style="enable-background:new 0 0 51 51;" xml:space="preserve">
<g>
	<circle style="fill:#B92326;" cx="25.5" cy="25.5" r="22.3"/>
	<g>
		<g>
			<path style="fill:#FFFFFF;" d="M25.1,34h-6.2v0.5c0,0.4-0.1,0.8-0.4,1.2c-0.2,0.4-0.6,0.7-1.1,1c-0.5,0.3-1.2,0.4-2,0.4
				c-0.9,0-1.6-0.2-2.1-0.5c-0.5-0.3-0.9-0.7-1.1-1.1C12.1,35,12,34.6,12,34.2c0-0.3,0.1-0.8,0.2-1.5c0.1-0.7,0.2-1.4,0.4-2.1
				l1.5,0.1c-0.3,1.8-0.5,2.9-0.5,3.2c0,0.2,0.1,0.5,0.2,0.7s0.3,0.5,0.6,0.6s0.6,0.2,1.1,0.2c0.4,0,0.7-0.1,1-0.2
				c0.3-0.1,0.5-0.3,0.6-0.6c0.1-0.2,0.2-0.5,0.2-0.7v-6.1h1.6v1.9c0.4-0.5,0.7-0.8,1-1.1s0.6-0.5,1-0.7c0.4-0.2,0.9-0.3,1.4-0.3
				c1,0,1.7,0.3,2.2,0.9s0.6,1.4,0.6,2.2V34z M20.2,30.1c-0.5,0.5-1,1.2-1.3,1.9v0.6h4.6v-1.2c0-0.5-0.1-1-0.4-1.4
				c-0.3-0.4-0.7-0.6-1.1-0.6C21.3,29.3,20.8,29.5,20.2,30.1z"/>
			<path style="fill:#FFFFFF;" d="M29.6,32.5V34h-2.8v-8.5h1.6v7H29.6z"/>
			<path style="fill:#FFFFFF;" d="M29.6,32.5h3V34h-3V32.5z"/>
			<path style="fill:#FFFFFF;" d="M38.2,28.3c0.3,0.3,0.5,0.8,0.5,1.5V34h-6.2v-1.5h4.6v-2.3c0-0.3-0.1-0.6-0.2-0.8
				c-0.1-0.2-0.4-0.3-0.8-0.3c-0.7,0-1.4,0-1.9,0.1l-0.6,0l0-1.1c0.4-0.1,0.9-0.2,1.5-0.3c0.6-0.1,1.1-0.1,1.5-0.1
				C37.4,27.8,37.9,28,38.2,28.3z M35.5,25.2H37v1.6h-1.5V25.2z"/>
		</g>
	</g>
	<g>
		<path style="fill:#B92527;" d="M25.5,51C11.4,51,0,39.5,0,25.5S11.4,0,25.5,0S51,11.4,51,25.5S39.5,51,25.5,51z M25.5,2
			C12.5,2,2,12.5,2,25.5S12.5,49,25.5,49S49,38.4,49,25.5S38.4,2,25.5,2z"/>
	</g>
</g>
<g>
	<path style="fill:#FFFFFF;" d="M20.2,20v1.7h-0.7c-0.2,0-0.3-0.1-0.4-0.2c-0.1-0.1-0.2-0.2-0.3-0.4v0.6h-4.4
		c-0.4,0-0.8,0.1-1.1,0.4c-0.3,0.3-0.5,0.8-0.5,1.5c0,0.6,0.1,1.4,0.4,2.5l-1.5,0.1c-0.1-0.6-0.2-1.2-0.3-1.8s-0.2-1.2-0.2-1.6
		c0-0.6,0.1-1.1,0.3-1.5c0.2-0.4,0.5-0.7,0.9-0.9c-0.2-0.7-0.2-1.4-0.2-2c0-0.5,0-1,0.1-1.6c0.1-0.6,0.2-1.1,0.3-1.5
		c0.2-0.1,0.6-0.2,1.1-0.3c0.5-0.1,1-0.1,1.6-0.1c0.9,0,1.7,0.1,2.2,0.4c0.5,0.3,0.8,0.7,1,1.2c0.2,0.5,0.3,1.2,0.3,2v1.2
		c0.1,0.2,0.2,0.3,0.3,0.4c0.1,0.1,0.3,0.2,0.4,0.2H20.2z M16.9,20v-1.8c0-0.6-0.1-1.1-0.4-1.4c-0.2-0.3-0.7-0.4-1.4-0.4
		c-0.3,0-0.7,0-1,0.1c-0.1,0.7-0.2,1.3-0.2,1.8c0,0.3,0,0.6,0.1,0.9c0,0.3,0.1,0.6,0.1,0.8H16.9z"/>
	<path style="fill:#FFFFFF;" d="M31.9,20v1.7H20.2V20H22v-5.1h1.8V17c0.4-0.5,0.8-0.9,1.1-1.2c0.3-0.3,0.7-0.6,1.2-0.8
		c0.4-0.2,1-0.3,1.5-0.3c1.1,0,1.9,0.4,2.4,1.1c0.5,0.7,0.7,1.5,0.7,2.5V20H31.9z M25.3,17.3c-0.6,0.6-1.1,1.3-1.5,2.1V20h5.1v-1.4
		c0-0.6-0.2-1.1-0.5-1.6c-0.3-0.4-0.7-0.6-1.3-0.6C26.5,16.4,25.9,16.7,25.3,17.3z"/>
	<path style="fill:#FFFFFF;" d="M38.2,15.3c0.4,0.4,0.6,0.9,0.6,1.7v4.7h-6.9V20H37v-2.6c0-0.4-0.1-0.7-0.3-0.9s-0.5-0.3-0.9-0.3
		c-0.8,0-1.6,0.1-2.2,0.1l-0.7,0L33,15.2c0.5-0.1,1-0.2,1.7-0.3c0.7-0.1,1.2-0.1,1.7-0.1C37.2,14.7,37.9,14.9,38.2,15.3z M35.2,11.8
		h1.7v1.8h-1.7V11.8z"/>
</g>
</svg>
